<svg xmlns="http://www.w3.org/2000/svg" xmlns:xlink="http://www.w3.org/1999/xlink" width="82" height="82" viewBox="0 0 82 82">
  <defs>
    <clipPath id="clip-path">
      <rect id="矩形_57" data-name="矩形 57" width="82" height="82" rx="4" transform="translate(-221 232)" fill="#fcc504"/>
    </clipPath>
  </defs>
  <g id="蒙版组_1" data-name="蒙版组 1" transform="translate(221 -232)" clip-path="url(#clip-path)">
    <g id="组件_27_2" data-name="组件 27 – 2" transform="translate(-221 232)">
      <rect id="矩形_54" data-name="矩形 54" width="82" height="82" rx="4" fill="#fcc504"/>
      <g id="组_28" data-name="组 28" transform="translate(22.732 21.943)">
        <path id="路径_144" data-name="路径 144" d="M104.109,58.888c.684,2.192,1.907,7.867-2.526,11.182a.658.658,0,0,1-.905-.114,10.122,10.122,0,0,0-5.288-2.692.658.658,0,0,0-.791.728c.219,1.78.509,5.793-1.164,8.068-2.192,2.986-5.92,21.978,17.419,20.463,22.2-1.438,18.32-22.107,12.46-29.4a.658.658,0,0,0-1.153.267,9.962,9.962,0,0,1-2.326,4.46.658.658,0,0,1-1.112-.438c-.373-5.19-3.852-12.791-13.949-13.374a.658.658,0,0,0-.664.848Z" transform="translate(-91.789 -58.033)" fill="#f4566c"/>
        <path id="路径_145" data-name="路径 145" d="M126.52,72.943a20.432,20.432,0,0,0-3.118-5.808.658.658,0,0,0-1.153.263,9.962,9.962,0,0,1-2.326,4.46.658.658,0,0,1-1.114-.438c-.371-5.19-3.85-12.791-13.946-13.374a.658.658,0,0,0-.658.855c.684,2.192,1.907,7.867-2.526,11.182a.658.658,0,0,1-.906-.114,10.122,10.122,0,0,0-5.288-2.692.658.658,0,0,0-.791.728c.219,1.78.509,5.793-1.164,8.068-1.456,1.973-3.585,10.989,1.945,16.4A26.3,26.3,0,0,0,126.52,72.943Z" transform="translate(-91.878 -58.038)" fill="#f56677"/>
        <path id="路径_146" data-name="路径 146" d="M118.791,71.121c-.425-5.185-3.929-12.653-13.935-13.229a.658.658,0,0,0-.658.855c.684,2.192,1.907,7.867-2.526,11.182a.658.658,0,0,1-.905-.114,10.122,10.122,0,0,0-5.288-2.692.658.658,0,0,0-.791.728c.219,1.78.509,5.793-1.164,8.068-.976,1.315-2.254,5.812-1.326,10.254.395.042.791.077,1.193.1a26.31,26.31,0,0,0,25.4-15.15Z" transform="translate(-91.871 -57.891)" fill="#f67c85"/>
        <path id="路径_147" data-name="路径 147" d="M103.526,78.775A25.849,25.849,0,0,0,124.5,60.816a15.088,15.088,0,0,0-8.5-2.925.658.658,0,0,0-.658.855c.684,2.192,1.907,7.867-2.526,11.182a.658.658,0,0,1-.906-.114,10.122,10.122,0,0,0-5.288-2.692.658.658,0,0,0-.791.728c.219,1.78.509,5.793-1.164,8.068a8.711,8.711,0,0,0-1.149,2.857Z" transform="translate(-103.023 -57.891)" fill="#f78b90"/>
        <path id="路径_148" data-name="路径 148" d="M181.143,522.505a1.278,1.278,0,0,1-.877-.338c-4.793-4.411-2.289-11.62-2.179-11.936a1.28,1.28,0,1,1,2.412.86c-.02.059-2.035,5.935,1.5,9.189a1.283,1.283,0,0,1-.877,2.225Z" transform="translate(-173.673 -490.047)" fill="#fff"/>
      </g>
    </g>
  </g>
</svg>
