<svg xmlns="http://www.w3.org/2000/svg" width="11.9" height="11.555" viewBox="0 0 11.9 11.555">
  <path id="路径_162" data-name="路径 162" d="M116.313,124.8l-.184-.237-.007-.007c-.06-.063-.231-.237-.511-.477-.334-.288-.93-.712-.977-.743l-.834-.5a.963.963,0,0,0-.425-.093,1.03,1.03,0,0,0-.338.055c-.361.126-.7.695-.791.866-.043.079-.091.174-.131.258l-.013.026c-.051.1-.108.215-.168.326a.406.406,0,0,1-.316.215.225.225,0,0,1-.113-.03,9.282,9.282,0,0,1-1.9-1.387,6.238,6.238,0,0,1-1.464-1.882c-.015-.039-.014-.215.086-.264.137-.068.249-.113.347-.153l.023-.01a2.753,2.753,0,0,0,.429-.205c.066-.043.1-.062.131-.079l.015-.009a2.786,2.786,0,0,0,.265-.165l.066-.055.1-.092a.879.879,0,0,0,.222-.96l-.046-.132a8.724,8.724,0,0,0-.44-.863c-.131-.226-.331-.526-.507-.764a2.76,2.76,0,0,0-.92-.849s-.119-.063-.19-.1a1.132,1.132,0,0,0-.9.009,3.176,3.176,0,0,0-.982.621l-.062.053a2.835,2.835,0,0,0-1.187,2.388,11.732,11.732,0,0,0,3.262,5.24,12.338,12.338,0,0,0,5.42,3.136,2.166,2.166,0,0,0,.279.018,3.063,3.063,0,0,0,2.041-.993,3.511,3.511,0,0,0,.744-.988,1.215,1.215,0,0,0-.027-1.176m-8.98-3.257a7.027,7.027,0,0,0,1.66,2.163,10.121,10.121,0,0,0,2.07,1.519,1.109,1.109,0,0,0,.554.15,1.3,1.3,0,0,0,1.091-.676c.07-.128.132-.252.2-.388l.028-.058c.031-.062.06-.119.086-.168a1.946,1.946,0,0,1,.332-.459.414.414,0,0,1,.052,0l.741.448.012.008c.18.128.625.451.874.666.218.187.358.325.4.37a.126.126,0,0,0,.018.017l.136.174a.593.593,0,0,1-.055.294,2.627,2.627,0,0,1-.545.712,2.155,2.155,0,0,1-1.426.754,1.326,1.326,0,0,1-.176-.012,11.7,11.7,0,0,1-4.918-2.9,11.1,11.1,0,0,1-3-4.723,2.016,2.016,0,0,1,.877-1.587l.064-.053a2.338,2.338,0,0,1,.746-.481.36.36,0,0,1,.134-.035.2.2,0,0,1,.077.015c.031.015.084.042.116.06l.028.014a2.057,2.057,0,0,1,.611.588,7.81,7.81,0,0,1,.453.681c.125.216.249.455.369.711l.012.024.039.117c0,.007,0,.011,0,.011l-.014.015-.026.026-.03.029c-.112.074-.151.1-.191.119s-.087.047-.181.107a1.951,1.951,0,0,1-.3.139c-.123.05-.258.105-.424.187a1.129,1.129,0,0,0-.5,1.414" transform="translate(-104.58 -116.399)" fill="#fff"/>
</svg>
