<svg xmlns="http://www.w3.org/2000/svg" xmlns:xlink="http://www.w3.org/1999/xlink" width="6.103515625" height="10.4652099609375" viewBox="0 0 6.103515625 10.4652099609375" fill="none"><path id="路径 99" fill-rule="evenodd" style="fill:#A4A4A4" opacity="1" d="M6.0123 5.51433C6.01926 5.50082 6.03058 5.48952 6.03668 5.47559C6.15637 5.22665 6.11716 4.92207 5.90527 4.72188L1.10147 0.17836C0.839539 -0.0692596 0.426575 -0.0575104 0.178497 0.204041C-0.0690918 0.466019 -0.0577698 0.878967 0.204163 1.12701L4.51447 5.20448L0.221161 9.34244C-0.038208 9.59265 -0.0460205 10.0056 0.204163 10.2654C0.332153 10.3986 0.503174 10.4652 0.674194 10.4652C0.837341 10.4652 1.00055 10.4043 1.1272 10.2824L5.88742 5.69449C5.89655 5.68535 5.90002 5.67274 5.90918 5.66318C5.91614 5.65665 5.92355 5.65184 5.93048 5.6449C5.96747 5.60614 5.98706 5.55869 6.0123 5.51433Z"></path></svg>