<svg xmlns="http://www.w3.org/2000/svg" width="17.435" height="14.462" viewBox="0 0 17.435 14.462">
  <g id="组_33" data-name="组 33" transform="translate(-88.483 -160.696)">
    <path id="路径_52" data-name="路径 52" d="M387.255,414.621a2.533,2.533,0,1,0,2.549,2.533A2.544,2.544,0,0,0,387.255,414.621Z" transform="translate(-290.126 -248.699)" fill="#272536"/>
    <path id="路径_53" data-name="路径 53" d="M105.9,172.966a.218.218,0,0,1-.018.034v-9.338a1.074,1.074,0,0,0-1.076-1.07h-3.26l-.018-.036-.421-.837c-.048-.107-.479-1.023-1.066-1.023H94.325c-.6,0-1.042.972-1.061,1.013l-.426.847-.018.036H89.559a1.074,1.074,0,0,0-1.076,1.07v10.425a1.075,1.075,0,0,0,1.076,1.071h15.251a1.075,1.075,0,0,0,1.076-1.071v-1.075c.011-.015.023-.029.033-.046Zm-8.774-.846a3.664,3.664,0,1,1,3.684-3.665A3.679,3.679,0,0,1,97.129,172.12Zm5.639-6.348a.858.858,0,1,1,.858-.858A.859.859,0,0,1,102.768,165.772Z" transform="translate(0 0)" fill="#272536"/>
    <path id="路径_54" data-name="路径 54" d="M872.8,755.633h0v0Z" transform="translate(-768.176 -582.683)" fill="#272536"/>
  </g>
</svg>
