<svg xmlns="http://www.w3.org/2000/svg" width="21.177" height="21.176" viewBox="0 0 21.177 21.176">
  <g id="组_35" data-name="组 35" transform="translate(-151.62 -151.5)">
    <path id="路径_45" data-name="路径 45" d="M271.871,275.547l-1.288.1q-1.424.114-2.853.114t-2.87-.114l-1.288-.1a3.29,3.29,0,0,1-3.016-3.016l-.1-1.288q-.114-1.428-.114-2.861t.114-2.861l.1-1.288a3.29,3.29,0,0,1,3.016-3.016l1.288-.1q1.428-.114,2.861-.114t2.861.114l1.288.1a3.29,3.29,0,0,1,3.016,3.016l.1,1.288q.114,1.428.114,2.861t-.114,2.861l-.1,1.288a3.29,3.29,0,0,1-3.016,3.016Z" transform="translate(-105.527 -106.284)" fill="#eaeaea"/>
    <path id="路径_46" data-name="路径 46" d="M156.518,161.3c-.548,0-1.1-.022-1.649-.066a3.47,3.47,0,0,1-3.182-3.182c-.044-.546-.066-1.1-.066-1.65s.022-1.1.066-1.649a3.47,3.47,0,0,1,3.182-3.182c.546-.044,1.1-.066,1.649-.066s1.1.022,1.65.066a3.47,3.47,0,0,1,3.182,3.182c.043.547.066,1.1.066,1.649s-.022,1.1-.066,1.65a3.47,3.47,0,0,1-3.182,3.182q-.821.065-1.645.066Zm0-8.18c-.505,0-1.017.02-1.521.061a1.847,1.847,0,0,0-1.7,1.7c-.04.5-.061,1.015-.061,1.521s.02,1.017.061,1.521a1.847,1.847,0,0,0,1.7,1.7c.5.04,1.015.061,1.521.061h0c.5,0,1.014-.021,1.516-.061a1.846,1.846,0,0,0,1.7-1.7c.04-.5.061-1.016.061-1.521s-.021-1.017-.061-1.521a1.846,1.846,0,0,0-1.7-1.7q-.759-.06-1.521-.061ZM167.9,161.3c-.548,0-1.1-.022-1.649-.066a3.47,3.47,0,0,1-3.182-3.182c-.043-.547-.066-1.1-.066-1.65s.022-1.1.066-1.649a3.47,3.47,0,0,1,3.182-3.182c.547-.044,1.1-.066,1.65-.066s1.1.022,1.649.066a3.47,3.47,0,0,1,3.182,3.182c.044.547.066,1.1.066,1.649s-.022,1.1-.066,1.65a3.47,3.47,0,0,1-3.183,3.182q-.821.065-1.645.066Zm0-8.18c-.505,0-1.017.02-1.521.061a1.846,1.846,0,0,0-1.7,1.7c-.04.5-.061,1.016-.061,1.521s.021,1.017.061,1.521a1.846,1.846,0,0,0,1.7,1.7c.506.041,1.02.061,1.525.061s1.014-.021,1.516-.061a1.846,1.846,0,0,0,1.7-1.7c.04-.5.061-1.016.061-1.521s-.021-1.017-.061-1.521a1.846,1.846,0,0,0-1.7-1.7q-.759-.06-1.52-.061Zm-11.381,19.561c-.548,0-1.1-.022-1.649-.066a3.47,3.47,0,0,1-3.182-3.182c-.044-.546-.066-1.1-.066-1.649s.022-1.1.066-1.65a3.47,3.47,0,0,1,3.182-3.182c.546-.043,1.1-.066,1.649-.066s1.1.022,1.65.066a3.47,3.47,0,0,1,3.182,3.182c.043.547.066,1.1.066,1.65s-.022,1.1-.066,1.649a3.47,3.47,0,0,1-3.182,3.182q-.821.065-1.645.066Zm0-8.18c-.505,0-1.017.021-1.521.061a1.847,1.847,0,0,0-1.7,1.7c-.04.5-.061,1.015-.061,1.521s.02,1.017.061,1.521A1.847,1.847,0,0,0,155,171q.759.061,1.521.061h0c.5,0,1.014-.021,1.516-.061a1.846,1.846,0,0,0,1.7-1.7c.04-.5.061-1.016.061-1.521s-.021-1.017-.061-1.521a1.846,1.846,0,0,0-1.7-1.7c-.5-.041-1.016-.062-1.521-.062Zm11.381,8.18c-.548,0-1.1-.022-1.65-.066a3.47,3.47,0,0,1-3.182-3.182c-.043-.547-.066-1.1-.066-1.649s.022-1.1.066-1.65a3.47,3.47,0,0,1,3.182-3.182c.547-.043,1.1-.066,1.65-.066s1.1.022,1.649.066a3.47,3.47,0,0,1,3.182,3.182c.044.547.066,1.1.066,1.65s-.022,1.1-.066,1.649a3.47,3.47,0,0,1-3.183,3.182q-.821.065-1.645.066ZM169.42,171l.064.805L169.42,171a1.846,1.846,0,0,0,1.7-1.7c.04-.5.061-1.016.061-1.521s-.021-1.017-.061-1.521a1.846,1.846,0,0,0-1.7-1.7c-.5-.04-1.016-.061-1.521-.061s-1.017.021-1.521.061a1.846,1.846,0,0,0-1.7,1.7c-.04.5-.061,1.016-.061,1.521s.021,1.017.061,1.521a1.846,1.846,0,0,0,1.7,1.7c.505.041,1.019.061,1.526.061S168.917,171.04,169.42,171Z" fill="#333"/>
  </g>
</svg>
