<svg xmlns="http://www.w3.org/2000/svg" width="17.89" height="17.889" viewBox="0 0 17.89 17.889">
  <g id="组_20" data-name="组 20" transform="translate(-135.86 -134.61)">
    <path id="路径_58" data-name="路径 58" d="M268.95,260.11q0,1.185-.1,2.368a3.976,3.976,0,0,1-3.646,3.647q-1.179.1-2.361.1t-2.375-.1a3.976,3.976,0,0,1-3.647-3.647q-.1-1.182-.1-2.368t.1-2.368a3.976,3.976,0,0,1,3.647-3.646q1.182-.1,2.368-.1h1.748a2.307,2.307,0,0,1,1.571.619l2.056,1.915a2.306,2.306,0,0,1,.734,1.686Z" transform="translate(-117.992 -116.548)" fill="#eaeaea"/>
    <path id="路径_59" data-name="路径 59" d="M144.8,152.5c-1.085,0-2.184-.044-3.266-.13a6.05,6.05,0,0,1-5.549-5.549c-.086-1.082-.13-2.18-.13-3.265s.044-2.184.13-3.265a6.05,6.05,0,0,1,5.549-5.549c1.082-.086,2.18-.13,3.265-.13h2.372a3.772,3.772,0,0,1,2.579,1.015l2.789,2.6a3.8,3.8,0,0,1,1.2,2.768v2.563c0,1.085-.044,2.184-.13,3.265a6.05,6.05,0,0,1-5.549,5.549c-1.078.086-2.174.13-3.255.13Zm0-16.58c-1.05,0-2.114.043-3.161.126a4.741,4.741,0,0,0-4.349,4.349c-.084,1.048-.126,2.11-.126,3.161s.042,2.114.126,3.161a4.741,4.741,0,0,0,4.348,4.348c1.048.084,2.111.126,3.161.126h.01c1.048,0,2.107-.043,3.152-.126a4.741,4.741,0,0,0,4.348-4.348c.084-1.048.126-2.111.126-3.161v-2.563a2.482,2.482,0,0,0-.787-1.809l-2.791-2.6a2.467,2.467,0,0,0-1.686-.664Z" transform="translate(0)" fill="#333"/>
    <path id="路径_60" data-name="路径 60" d="M329.033,173.667h-4.694A2.338,2.338,0,0,1,322,171.332v-3a.655.655,0,1,1,1.309,0v3a1.027,1.027,0,0,0,1.026,1.026h4.694a1.027,1.027,0,0,0,1.026-1.026v-3a.655.655,0,1,1,1.309,0v3A2.338,2.338,0,0,1,329.033,173.667Zm1.681,3.353h-8.059a.655.655,0,1,1,0-1.309h8.059a.655.655,0,0,1,0,1.309Zm-4.19,2.809h-3.869a.655.655,0,1,1,0-1.309h3.869a.655.655,0,1,1,0,1.309Z" transform="translate(-181.708 -32.283)" fill="#333"/>
  </g>
</svg>
