<svg xmlns="http://www.w3.org/2000/svg" width="17.675" height="12.152" viewBox="0 0 17.675 12.152">
  <path id="路径_149" data-name="路径 149" d="M16.2,160H1.481A1.491,1.491,0,0,0,0,161.5v9.15a1.49,1.49,0,0,0,1.479,1.5H16.2a1.488,1.488,0,0,0,1.479-1.5V161.5A1.49,1.49,0,0,0,16.2,160Zm-.354,1.075-5.869,5.277a2.2,2.2,0,0,1-1.136.693,2.2,2.2,0,0,1-1.136-.693l-5.869-5.277H15.842ZM1.1,170.318v-8.269l4.584,4.076L1.1,170.318Zm.77.759,4.6-4.143.755.671a2.353,2.353,0,0,0,1.612.588,2.346,2.346,0,0,0,1.613-.588l.755-.671,4.6,4.143H1.871Zm14.706-.759-4.585-4.191,4.585-4.076Z" transform="translate(-0.001 -160)"/>
</svg>
