<svg xmlns="http://www.w3.org/2000/svg" width="17.89" height="17.889" viewBox="0 0 17.89 17.889">
  <g id="组_34" data-name="组 34" transform="translate(-122.864 -123.845)">
    <path id="路径_94" data-name="路径 94" d="M261.538,261.918m-5.878,0a5.878,5.878,0,1,0,5.878-5.878A5.878,5.878,0,0,0,255.66,261.918Z" transform="translate(-129.739 -129.152)" fill="#eaeaea"/>
    <path id="路径_95" data-name="路径 95" d="M131.8,141.734a8.944,8.944,0,1,1,3.491-.705A8.944,8.944,0,0,1,131.8,141.734Zm0-16.671a7.7,7.7,0,1,0,5.446,2.256A7.7,7.7,0,0,0,131.8,125.063Z" transform="translate(0 0)" fill="#333"/>
    <path id="路径_96" data-name="路径 96" d="M465.132,465.512m-1.082,0a1.082,1.082,0,1,0,1.082-1.082A1.082,1.082,0,0,0,464.05,465.512Z" transform="translate(-333.333 -332.746)" fill="#333"/>
    <path id="路径_97" data-name="路径 97" d="M295.132,465.512m-1.082,0a1.082,1.082,0,1,0,1.082-1.082A1.082,1.082,0,0,0,294.05,465.512Z" transform="translate(-167.246 -332.746)" fill="#333"/>
    <path id="路径_98" data-name="路径 98" d="M635.132,465.512m-1.082,0a1.082,1.082,0,1,0,1.082-1.082A1.082,1.082,0,0,0,634.05,465.512Z" transform="translate(-499.421 -332.746)" fill="#333"/>
  </g>
</svg>
