<svg xmlns="http://www.w3.org/2000/svg" width="17.13" height="17.13" viewBox="0 0 17.13 17.13">
  <path id="路径_185" data-name="路径 185" d="M179.232,175.025a1.44,1.44,0,0,1,1.427,1.452v7.263a1.441,1.441,0,0,1-1.427,1.453h-3.568l-2.351,2.39a.705.705,0,0,1-.777.158.726.726,0,0,1-.441-.672v-1.876a1.419,1.419,0,0,1-1.009-.426,1.465,1.465,0,0,1-.418-1.029v-7.261a1.44,1.44,0,0,1,1.427-1.452h7.138Zm7.138-4.358a1.414,1.414,0,0,1,1.009.426,1.467,1.467,0,0,1,.418,1.028v10.168a1.469,1.469,0,0,1-.418,1.028,1.415,1.415,0,0,1-1.009.424v1.879a.726.726,0,0,1-.441.671.705.705,0,0,1-.777-.158L182.8,183.74h-1.427v-7.989a1.44,1.44,0,0,0-1.427-1.452h-6.424v-2.18a1.44,1.44,0,0,1,1.427-1.452Zm-8.851,8.576h-3.953a.659.659,0,1,0,0,1.318h3.953a.659.659,0,1,0,0-1.318Z" transform="translate(-170.667 -170.667)" fill="#fff"/>
</svg>
