<svg xmlns="http://www.w3.org/2000/svg" width="21.176" height="21.176" viewBox="0 0 21.176 21.176">
  <g id="组_36" data-name="组 36" transform="translate(-88.957 -88.849)">
    <path id="路径_162" data-name="路径 162" d="M99.548,110.025a10.591,10.591,0,1,1,7.49-3.1,10.52,10.52,0,0,1-7.49,3.1Zm0-19.594a9,9,0,1,0,6.367,2.637,8.984,8.984,0,0,0-6.367-2.637Z" transform="translate(0 0)"/>
    <path id="路径_163" data-name="路径 163" d="M300.028,341.706h1.155a.477.477,0,0,1,.487.477v1.155a.475.475,0,0,1-.477.477h-1.165a.459.459,0,0,1-.477-.466v-1.165A.475.475,0,0,1,300.028,341.706Zm4.237,0h1.155a.477.477,0,0,1,.487.477v1.155a.475.475,0,0,1-.477.477h-1.165a.459.459,0,0,1-.477-.466v-1.165A.475.475,0,0,1,304.265,341.706Zm4.237,0h1.155a.477.477,0,0,1,.487.477v1.155a.475.475,0,0,1-.477.477H308.5a.459.459,0,0,1-.477-.466v-1.165A.475.475,0,0,1,308.5,341.706Zm-8.474,3.178h1.155a.475.475,0,0,1,.477.477v1.155a.475.475,0,0,1-.477.477h-1.155a.459.459,0,0,1-.477-.466V345.36A.475.475,0,0,1,300.028,344.884Zm4.237,0h1.155a.475.475,0,0,1,.477.477v1.155a.475.475,0,0,1-.477.477h-1.155a.459.459,0,0,1-.477-.466V345.36A.475.475,0,0,1,304.265,344.884Zm4.237,0h1.155a.475.475,0,0,1,.477.477v1.155a.475.475,0,0,1-.477.477H308.5a.459.459,0,0,1-.477-.466V345.36A.475.475,0,0,1,308.5,344.884Zm-4.978,4.767h2.648a.794.794,0,1,1,0,1.589h-2.648a.794.794,0,1,1,0-1.589Z" transform="translate(-205.345 -246.553)"/>
  </g>
</svg>
