<svg xmlns="http://www.w3.org/2000/svg" width="14.804" height="14.468" viewBox="0 0 14.804 14.468">
  <g id="组_33" data-name="组 33" transform="translate(-64 -105.337)">
    <path id="路径_89" data-name="路径 89" d="M241.715,119.8h-5.287a1.762,1.762,0,0,1-1.762-1.762v-7.273a1.794,1.794,0,0,1,.609-1.357l.69-.575q2-1.636,4-3.259a1.41,1.41,0,0,1,2.186,1.3l-.278,2.71.086.01a5.121,5.121,0,0,1,.113,10.194l-.114.011A1.786,1.786,0,0,1,241.715,119.8Zm-5.992-1.762a.7.7,0,0,0,.7.7h5.318l.108,0-.042.006.166-.017a4.063,4.063,0,0,0-.1-8.087l-.157-.018a1.057,1.057,0,0,1-.895-1.154l.277-2.7a.352.352,0,0,0-.518-.342l-3.715,3.023-.392.323-.51.426a.645.645,0,0,0-.137.161.758.758,0,0,0-.1.369l0,.07v7.227Z" transform="translate(-167.846 0)" fill="#fff"/>
    <path id="路径_90" data-name="路径 90" d="M65.057,392.92m-.529,0h0a.467.467,0,0,1-.529-.529v-8.459a.467.467,0,0,1,.529-.529h0a.467.467,0,0,1,.529.529v8.459A.467.467,0,0,1,64.529,392.92Z" transform="translate(0 -273.472)" fill="#fff"/>
  </g>
</svg>
