<svg xmlns="http://www.w3.org/2000/svg" width="17.889" height="17.889" viewBox="0 0 17.889 17.889">
  <g id="组_40" data-name="组 40" transform="translate(-110.3 -117.54)">
    <path id="路径_186" data-name="路径 186" d="M272.778,282.285l-.968.077q-1.07.086-2.144.086t-2.157-.086l-.968-.077a2.471,2.471,0,0,1-2.267-2.267l-.077-.968q-.086-1.074-.086-2.151t.086-2.151l.077-.968a2.473,2.473,0,0,1,2.267-2.267l.968-.077q1.074-.086,2.151-.086t2.151.086l.968.077a2.473,2.473,0,0,1,2.267,2.267l.077.968q.086,1.074.086,2.151t-.086,2.151l-.077.968A2.471,2.471,0,0,1,272.778,282.285Z" transform="translate(-150.414 -150.414)" fill="#eaeaea"/>
    <path id="路径_187" data-name="路径 187" d="M370.593,378.445a.606.606,0,0,1-.429-.177l-5.448-5.45a.607.607,0,0,1,.859-.859l5.449,5.449a.607.607,0,0,1-.429,1.036Z" transform="translate(-248.624 -248.629)" fill="#333"/>
    <path id="路径_188" data-name="路径 188" d="M365.107,378.445a.607.607,0,0,1-.429-1.036l5.449-5.448a.607.607,0,1,1,.859.859l-5.448,5.449A.605.605,0,0,1,365.107,378.445Z" transform="translate(-248.588 -248.629)" fill="#333"/>
    <path id="路径_189" data-name="路径 189" d="M119.245,135.429c-1.09,0-2.193-.044-3.28-.131a6.033,6.033,0,0,1-5.534-5.534c-.087-1.087-.131-2.191-.131-3.28s.044-2.193.131-3.28a6.034,6.034,0,0,1,5.534-5.534c1.086-.087,2.19-.131,3.28-.131s2.193.044,3.28.131a6.034,6.034,0,0,1,5.534,5.534c.087,1.087.131,2.19.131,3.28s-.044,2.193-.131,3.28a6.033,6.033,0,0,1-5.534,5.534c-1.083.087-2.183.131-3.27.131Zm0-16.675c-1.058,0-2.129.043-3.183.127a4.819,4.819,0,0,0-4.42,4.42c-.084,1.054-.127,2.125-.127,3.183s.043,2.129.127,3.183a4.819,4.819,0,0,0,4.42,4.42c1.054.084,2.125.127,3.183.127h.009c1.055,0,2.123-.043,3.174-.127a4.819,4.819,0,0,0,4.42-4.42c.084-1.054.127-2.125.127-3.183s-.043-2.129-.127-3.183a4.819,4.819,0,0,0-4.42-4.42C121.373,118.8,120.3,118.754,119.245,118.754Z" fill="#333"/>
  </g>
</svg>
