<svg xmlns="http://www.w3.org/2000/svg" width="18.474" height="19.385" viewBox="0 0 18.474 19.385">
  <g id="组_7" data-name="组 7" transform="translate(-106.899 -88.374)">
    <path id="路径_16" data-name="路径 16" d="M107.623,107.759a.73.73,0,0,0,.623-.364,9.168,9.168,0,0,1,15.783,0,.723.723,0,1,0,1.239-.743,10.687,10.687,0,0,0-5.686-4.632,7.258,7.258,0,1,0-6.895,0A10.689,10.689,0,0,0,107,106.653a.73.73,0,0,0,.62,1.106ZM110.33,95.6a5.807,5.807,0,1,1,5.8,5.838,5.807,5.807,0,0,1-5.8-5.838Z"/>
    <path id="路径_17" data-name="路径 17" d="M386.929,471.6a3.672,3.672,0,0,0,2.73-1.23.712.712,0,0,0-.054-1.015.737.737,0,0,0-1.03.053,2.174,2.174,0,0,1-3.293,0,.737.737,0,0,0-1.03-.053.711.711,0,0,0-.054,1.015A3.67,3.67,0,0,0,386.929,471.6Z" transform="translate(-270.794 -372.118)"/>
  </g>
</svg>
