<?xml version="1.0" standalone="no"?><!DOCTYPE svg PUBLIC "-//W3C//DTD SVG 1.1//EN" "http://www.w3.org/Graphics/SVG/1.1/DTD/svg11.dtd"><svg t="1707565826366" class="icon" viewBox="0 0 1024 1024" version="1.1" xmlns="http://www.w3.org/2000/svg" p-id="1668" xmlns:xlink="http://www.w3.org/1999/xlink" width="200" height="200"><path d="M392.92 761.27a167 167 0 0 1-153.19-153.19q-4-49.5-4-99.16 0-49.92 4-99.77A167 167 0 0 1 392.92 256q49.65-4 99.46-4t99.47 4A167 167 0 0 1 745 409.15c2 11.85 2 13.85 2 13.85 0 24.5-7.29 57.14-24 75.06L482.57 734.41C464 753 432.46 762.69 406 763c-0.4 0-2 0-13.08-1.73z" fill="#EAEAEA" p-id="1669"></path><path d="M596.64 885.86a27.5 27.5 0 0 1-27.5-27.49l-0.06-121.6a27.52 27.52 0 0 1 8.06-19.46l183.59-183.58a27.49 27.49 0 0 1 38.89 0l121.09 121.09a27.5 27.5 0 0 1 0 38.89L737.26 877.15a27.46 27.46 0 0 1-19.3 8.06l-121.17 0.65z m27.45-137.71v82.56l82.23-0.44 156-156-82.2-82.2z" fill="#333333" p-id="1670"></path><path d="M492.56 884c-45.58 0-91.73-1.84-137.15-5.47a254.11 254.11 0 0 1-233.08-233.06c-3.62-45.3-5.46-91.3-5.47-136.74 0-45.71 1.83-92 5.47-137.56a254.13 254.13 0 0 1 233.08-233.09c45.42-3.62 91.57-5.47 137.15-5.47s91.72 1.85 137.15 5.47a254.13 254.13 0 0 1 233.08 233.09c3.49 43.59 3.48 50.71 3.47 90.23v6.92a27.5 27.5 0 0 1-55 0v-6.94c0-38.51 0-44.43-3.29-85.83a199.12 199.12 0 0 0-182.64-182.64c-44-3.51-88.65-5.3-132.77-5.3s-88.8 1.79-132.77 5.3a199.12 199.12 0 0 0-182.64 182.64c-3.52 44.11-5.3 88.91-5.29 133.17 0 44 1.79 88.52 5.29 132.37a199.12 199.12 0 0 0 182.64 182.64c44 3.51 88.65 5.29 132.77 5.29a27.5 27.5 0 0 1 0 55z" fill="#333333" p-id="1671"></path><path d="M673 412.16H309a27.5 27.5 0 0 1 0-55h364a27.5 27.5 0 0 1 0 55zM309 554.23a27.5 27.5 0 0 1 0-55h261.32a27.5 27.5 0 1 1 0 55z" fill="#333333" p-id="1672"></path></svg>