<svg xmlns="http://www.w3.org/2000/svg" width="21.382" height="4.752" viewBox="0 0 21.382 4.752">
  <g id="组_33" data-name="组 33" transform="translate(-224 -448)">
    <path id="路径_38" data-name="路径 38" d="M226.376,450.376m-2.376,0A2.376,2.376,0,1,0,226.376,448,2.376,2.376,0,0,0,224,450.376Z" transform="translate(0 0)"/>
    <path id="路径_39" data-name="路径 39" d="M450.376,450.376m-2.376,0A2.376,2.376,0,1,0,450.376,448,2.376,2.376,0,0,0,448,450.376Z" transform="translate(-215.685 0)"/>
    <path id="路径_40" data-name="路径 40" d="M674.376,450.376m-2.376,0A2.376,2.376,0,1,0,674.376,448,2.376,2.376,0,0,0,672,450.376Z" transform="translate(-431.369 0)"/>
  </g>
</svg>
