<?xml version="1.0" standalone="no"?><!DOCTYPE svg PUBLIC "-//W3C//DTD SVG 1.1//EN" "http://www.w3.org/Graphics/SVG/1.1/DTD/svg11.dtd"><svg t="1707566567646" class="icon" viewBox="0 0 1024 1024" version="1.1" xmlns="http://www.w3.org/2000/svg" p-id="1993" xmlns:xlink="http://www.w3.org/1999/xlink" width="200" height="200"><path d="M611.75 766.45q-49.85 4-99.85 4-50.26 0-100.46-4A168.19 168.19 0 0 1 257.19 612.2q-4-50-4-100.16t4-100.15a168.19 168.19 0 0 1 154.25-154.26q50-4 100.16-4c21.61 0 123.38-1.1 192.56-1.88a65.1 65.1 0 0 1 65.84 65.1V512q0 50.12-4 100.16a168.19 168.19 0 0 1-154.25 154.29z" fill="#EAEAEA" p-id="1994"></path><path d="M858.38 386.89a27.5 27.5 0 0 1-27.5-27.5V216.73a26.27 26.27 0 0 0-26.24-26.23H662a27.5 27.5 0 0 1 0-55h142.64a81.33 81.33 0 0 1 81.24 81.23v142.66a27.51 27.51 0 0 1-27.5 27.5z" fill="#333333" p-id="1995"></path><path d="M549.94 499.08a27.51 27.51 0 0 1-19.46-46.94l268.1-268.29a27.5 27.5 0 0 1 38.91 38.88L569.39 491a27.43 27.43 0 0 1-19.45 8.08z" fill="#333333" p-id="1996"></path><path d="M511.56 888c-45.58 0-91.72-1.84-137.15-5.47a254.11 254.11 0 0 1-233.08-233.06c-3.63-45.43-5.47-91.58-5.47-137.15s1.84-91.72 5.47-137.15a254.13 254.13 0 0 1 233.08-233.09c45.43-3.63 91.58-5.47 137.15-5.47a27.5 27.5 0 0 1 0 55c-44.12 0-88.79 1.79-132.77 5.3a199.12 199.12 0 0 0-182.64 182.64c-3.51 44-5.29 88.65-5.29 132.77s1.78 88.79 5.29 132.77a199.12 199.12 0 0 0 182.64 182.64c44 3.51 88.65 5.29 132.76 5.29h0.45c44 0 88.53-1.79 132.37-5.29A199.12 199.12 0 0 0 827 645.09c3.51-44 5.29-88.65 5.29-132.77a27.5 27.5 0 1 1 55 0c0 45.57-1.84 91.72-5.47 137.15a254.11 254.11 0 0 1-233.11 233.08C603.42 886.17 557.41 888 512 888z" fill="#333333" p-id="1997"></path></svg>