<svg xmlns="http://www.w3.org/2000/svg" width="32.202" height="28.987" viewBox="0 0 32.202 28.987">
  <g id="组_29" data-name="组 29" transform="translate(-96.299 -138.94)">
    <path id="路径_18" data-name="路径 18" d="M244.7,281.959l-1.082.087c-1.257.1-3.85.151-5.11.151s-3.868-.05-5.132-.151l-1.082-.087a5.084,5.084,0,0,1-4.666-4.662l-.095-1.185a32.353,32.353,0,0,1,0-4.266l.095-1.185A5.084,5.084,0,0,1,232.3,266l1.082-.087c1.26-.1,3.858-.151,5.121-.151s3.86.051,5.121.151L244.7,266a5.084,5.084,0,0,1,4.666,4.663l.087,1.082a31.744,31.744,0,0,1,0,4.47l-.087,1.082A5.084,5.084,0,0,1,244.7,281.959Z" transform="translate(-126.101 -121.92)" fill="#eaeaea"/>
    <path id="路径_19" data-name="路径 19" d="M112.525,167.927a3.052,3.052,0,0,1-2.039-.779l-2.215-1.979c-.864-.037-1.634-.082-2.293-.134l-1.556-.124a8.593,8.593,0,0,1-7.882-7.882l-.136-1.7a48.969,48.969,0,0,1,0-6.456l.136-1.7a8.593,8.593,0,0,1,7.882-7.882l1.556-.124c1.952-.155,4.632-.226,6.421-.226s4.469.07,6.421.226l1.554.124a8.593,8.593,0,0,1,7.882,7.882l.124,1.556a47.745,47.745,0,0,1,0,6.783l-.122,1.521a8.593,8.593,0,0,1-7.882,7.882l-1.555.124c-.589.047-1.271.088-2.03.123l-2.228,1.987a3.055,3.055,0,0,1-2.039.779Zm-.125-26.863c-1.748,0-4.359.068-6.252.219l-1.556.124a6.467,6.467,0,0,0-5.932,5.932l-.136,1.7a46.335,46.335,0,0,0,0,6.12l.136,1.7a6.467,6.467,0,0,0,5.932,5.933l1.556.124c.716.057,1.611.107,2.589.145a1.064,1.064,0,0,1,.667.27l2.5,2.233a.934.934,0,0,0,1.246,0l2.511-2.243a1.064,1.064,0,0,1,.664-.27c.889-.036,1.671-.082,2.33-.134l1.555-.124a6.468,6.468,0,0,0,5.931-5.932l.124-1.555c0-.025.005-.051.009-.077a46.782,46.782,0,0,0-.009-6.335l-.124-1.556a6.468,6.468,0,0,0-5.932-5.93l-1.555-.124C116.758,141.132,114.147,141.064,112.4,141.064Z" fill="#333"/>
    <path id="路径_20" data-name="路径 20" d="M279.287,442.8m-1.8,0a1.8,1.8,0,1,0,1.8-1.8A1.8,1.8,0,0,0,277.49,442.8Z" transform="translate(-174.19 -290.389)" fill="#333"/>
    <path id="路径_21" data-name="路径 21" d="M468.287,442.8m-1.8,0a1.8,1.8,0,1,0,1.8-1.8A1.8,1.8,0,0,0,466.49,442.8Z" transform="translate(-355.888 -290.389)" fill="#333"/>
    <path id="路径_22" data-name="路径 22" d="M657.287,442.8m-1.8,0a1.8,1.8,0,1,0,1.8-1.8A1.8,1.8,0,0,0,655.49,442.8Z" transform="translate(-537.585 -290.389)" fill="#333"/>
  </g>
</svg>
