<svg xmlns="http://www.w3.org/2000/svg" width="28.146" height="28.987" viewBox="0 0 28.146 28.987">
  <g id="组_30" data-name="组 30" transform="translate(-115.85 -115.393)">
    <path id="路径_23" data-name="路径 23" d="M300.574,234.494l.108,1.391c.106,1.366.159,2.578.159,3.947s-.053,2.6-.159,3.972l-.108,1.39a5.19,5.19,0,0,1-4.674,4.84l-1.469.122a50.419,50.419,0,0,1-5.522,0l-1.469-.122a5.189,5.189,0,0,1-4.674-4.84l-.108-1.39c-.106-1.371-.159-2.586-.159-3.96s.053-2.59.159-3.96l.108-1.391a5.189,5.189,0,0,1,4.674-4.84l1.343-.111a49.184,49.184,0,0,1,5.773,0l1.343.111A5.189,5.189,0,0,1,300.574,234.494Z" transform="translate(-160.647 -109.958)" fill="#eaeaea"/>
    <path id="路径_24" data-name="路径 24" d="M121.866,321.687h-5.025a.991.991,0,0,1,0-1.981h5.025a.991.991,0,1,1,0,1.981Zm0-13.256h-5.025a.991.991,0,0,1,0-1.981h5.025a.991.991,0,0,1,0,1.981Z" transform="translate(0 -184.175)" fill="#333"/>
    <path id="路径_25" data-name="路径 25" d="M189.912,144.38c-1.365,0-2.731-.033-3.563-.1l-1.948-.157a7.747,7.747,0,0,1-7.106-7.1l-.142-1.781c-.142-1.773-.213-3.573-.213-5.351s.072-3.579.213-5.351l.142-1.781a7.747,7.747,0,0,1,7.106-7.106l1.781-.144a61.648,61.648,0,0,1,7.492,0l1.749.14a7.747,7.747,0,0,1,7.106,7.108l.142,1.781c.141,1.768.213,3.562.214,5.335s-.072,3.589-.214,5.367l-.142,1.781a7.747,7.747,0,0,1-7.106,7.1l-1.948.157C192.643,144.346,191.279,144.38,189.912,144.38Zm.383-27c-1.477,0-3.082.036-3.955.105l-1.781.144a5.766,5.766,0,0,0-5.289,5.287l-.142,1.781c-.138,1.72-.207,3.468-.207,5.194s.07,3.473.207,5.194l.142,1.781a5.767,5.767,0,0,0,5.289,5.289l1.948.156a62.086,62.086,0,0,0,6.811,0l1.948-.156a5.767,5.767,0,0,0,5.289-5.289l.144-1.781c.138-1.725.207-3.478.207-5.209s-.072-3.463-.207-5.178l-.144-1.781a5.766,5.766,0,0,0-5.289-5.289l-1.781-.144a.457.457,0,0,1-.07-.008C192.988,117.408,191.7,117.376,190.295,117.376Z" transform="translate(-58.889 0)" fill="#333"/>
    <path id="路径_26" data-name="路径 26" d="M375.414,506.546a12.25,12.25,0,0,1-3.918-.463,2.915,2.915,0,0,1-2.136-2.891,4.6,4.6,0,0,1,2.887-4.034.991.991,0,1,1,.857,1.786,2.687,2.687,0,0,0-1.763,2.247c0,.695.314,1.373,4.073,1.373s4.073-.678,4.073-1.373a2.688,2.688,0,0,0-1.763-2.247.991.991,0,1,1,.857-1.786,4.6,4.6,0,0,1,2.887,4.034,2.914,2.914,0,0,1-2.136,2.891A12.27,12.27,0,0,1,375.414,506.546Z" transform="translate(-244.378 -369.847)" fill="#333"/>
    <path id="路径_27" data-name="路径 27" d="M429.657,328.19a4.417,4.417,0,1,1,4.027-4.4A4.231,4.231,0,0,1,429.657,328.19Zm0-6.819a2.453,2.453,0,1,0,2.046,2.419A2.259,2.259,0,0,0,429.657,321.371Z" transform="translate(-298.621 -196.649)" fill="#333"/>
  </g>
</svg>
