<svg xmlns="http://www.w3.org/2000/svg" xmlns:xlink="http://www.w3.org/1999/xlink" width="16" height="12" viewBox="0 0 16 12" fill="none"><g opacity="1" transform="translate(0 0)  rotate(0 8 6)"><path id="Vector (轮廓)" fill-rule="evenodd" style="fill:#383838" transform="translate(0 0)  rotate(0 8 6)" opacity="1" d="M12.36,8.29L13.47,9.42C14.27,8.61 15.03,7.61 15.74,6.42L16,6L15.74,5.58C14.63,3.76 13.45,2.38 12.18,1.45C10.87,0.48 9.47,0 8,0C7.69,0 7.45,0 7.28,0.01C6.98,0.02 6.72,0.05 6.48,0.09C5.8,0.2 5.27,0.44 4.88,0.83L5.98,1.97C6.13,1.83 6.38,1.72 6.74,1.66C6.91,1.64 7.11,1.62 7.34,1.61C7.49,1.6 7.71,1.6 8,1.6C10.21,1.6 12.26,3.07 14.14,6C13.57,6.9 12.97,7.66 12.36,8.29Z M8,12C9.48,12 10.87,11.51 12.2,10.54L11.27,9.24C10.23,10.01 9.14,10.4 8,10.4C5.79,10.4 3.74,8.93 1.86,6C2.27,5.36 2.67,4.79 3.08,4.29C3.58,3.68 4.07,3.2 4.54,2.84L3.6,1.56C2.49,2.4 1.38,3.74 0.26,5.58L0,6L0.26,6.42C1.37,8.24 2.55,9.62 3.82,10.55C5.13,11.52 6.53,12 8,12Z " /><path  id="Vector (轮廓)" style="stroke:#FFFFFF; stroke-width:0; stroke-opacity:1; stroke-dasharray:0 0" transform="translate(0 0)  rotate(0 8 6)" d="M12.36,8.29L13.47,9.42C14.27,8.61 15.03,7.61 15.74,6.42L16,6L15.74,5.58C14.63,3.76 13.45,2.38 12.18,1.45C10.87,0.48 9.47,0 8,0C7.69,0 7.45,0 7.28,0.01C6.98,0.02 6.72,0.05 6.48,0.09C5.8,0.2 5.27,0.44 4.88,0.83L5.98,1.97C6.13,1.83 6.38,1.72 6.74,1.66C6.91,1.64 7.11,1.62 7.34,1.61C7.49,1.6 7.71,1.6 8,1.6C10.21,1.6 12.26,3.07 14.14,6C13.57,6.9 12.97,7.66 12.36,8.29Z M8,12C9.48,12 10.87,11.51 12.2,10.54L11.27,9.24C10.23,10.01 9.14,10.4 8,10.4C5.79,10.4 3.74,8.93 1.86,6C2.27,5.36 2.67,4.79 3.08,4.29C3.58,3.68 4.07,3.2 4.54,2.84L3.6,1.56C2.49,2.4 1.38,3.74 0.26,5.58L0,6L0.26,6.42C1.37,8.24 2.55,9.62 3.82,10.55C5.13,11.52 6.53,12 8,12Z " /><path id="Vector (轮廓)" fill-rule="evenodd" style="fill:#383838" transform="translate(5 3)  rotate(0 3 3)" opacity="1" d="M3.91,3.91C4.03,3.79 4.12,3.65 4.19,3.5C4.25,3.34 4.29,3.17 4.29,3C4.29,2.83 4.25,2.66 4.19,2.5C4.12,2.35 4.03,2.21 3.91,2.09C3.79,1.97 3.65,1.88 3.5,1.81C3.34,1.75 3.17,1.71 3,1.71C2.83,1.71 2.66,1.75 2.5,1.81C2.35,1.88 2.21,1.97 2.09,2.09C1.97,2.21 1.88,2.35 1.81,2.5C1.75,2.66 1.71,2.83 1.71,3C1.71,3.17 1.75,3.34 1.81,3.5C1.88,3.65 1.97,3.79 2.09,3.91C2.21,4.03 2.35,4.12 2.5,4.19C2.66,4.25 2.83,4.29 3,4.29C3.17,4.29 3.34,4.25 3.5,4.19C3.65,4.12 3.79,4.03 3.91,3.91Z M5.76,4.17C5.92,3.8 6,3.41 6,3C6,2.59 5.92,2.2 5.76,1.83C5.61,1.47 5.4,1.16 5.12,0.88C4.84,0.6 4.53,0.39 4.17,0.24C3.8,0.08 3.41,0 3,0C2.59,0 2.2,0.08 1.83,0.24C1.47,0.39 1.16,0.6 0.88,0.88C0.6,1.16 0.39,1.47 0.24,1.83C0.08,2.2 0,2.59 0,3C0,3.41 0.08,3.8 0.24,4.17C0.39,4.53 0.6,4.84 0.88,5.12C1.16,5.4 1.47,5.61 1.83,5.76C2.2,5.92 2.59,6 3,6C3.41,6 3.8,5.92 4.17,5.76C4.53,5.61 4.84,5.4 5.12,5.12C5.4,4.84 5.61,4.53 5.76,4.17Z " /><path  id="Vector (轮廓)" style="stroke:#FFFFFF; stroke-width:0; stroke-opacity:1; stroke-dasharray:0 0" transform="translate(5 3)  rotate(0 3 3)" d="M3.91,3.91C4.03,3.79 4.12,3.65 4.19,3.5C4.25,3.34 4.29,3.17 4.29,3C4.29,2.83 4.25,2.66 4.19,2.5C4.12,2.35 4.03,2.21 3.91,2.09C3.79,1.97 3.65,1.88 3.5,1.81C3.34,1.75 3.17,1.71 3,1.71C2.83,1.71 2.66,1.75 2.5,1.81C2.35,1.88 2.21,1.97 2.09,2.09C1.97,2.21 1.88,2.35 1.81,2.5C1.75,2.66 1.71,2.83 1.71,3C1.71,3.17 1.75,3.34 1.81,3.5C1.88,3.65 1.97,3.79 2.09,3.91C2.21,4.03 2.35,4.12 2.5,4.19C2.66,4.25 2.83,4.29 3,4.29C3.17,4.29 3.34,4.25 3.5,4.19C3.65,4.12 3.79,4.03 3.91,3.91Z M5.76,4.17C5.92,3.8 6,3.41 6,3C6,2.59 5.92,2.2 5.76,1.83C5.61,1.47 5.4,1.16 5.12,0.88C4.84,0.6 4.53,0.39 4.17,0.24C3.8,0.08 3.41,0 3,0C2.59,0 2.2,0.08 1.83,0.24C1.47,0.39 1.16,0.6 0.88,0.88C0.6,1.16 0.39,1.47 0.24,1.83C0.08,2.2 0,2.59 0,3C0,3.41 0.08,3.8 0.24,4.17C0.39,4.53 0.6,4.84 0.88,5.12C1.16,5.4 1.47,5.61 1.83,5.76C2.2,5.92 2.59,6 3,6C3.41,6 3.8,5.92 4.17,5.76C4.53,5.61 4.84,5.4 5.12,5.12C5.4,4.84 5.61,4.53 5.76,4.17Z " /></g></svg>