<svg xmlns="http://www.w3.org/2000/svg" width="28.987" height="28.987" viewBox="0 0 28.987 28.987">
  <g id="组_31" data-name="组 31" transform="translate(-108.42 -103.23)">
    <path id="路径_28" data-name="路径 28" d="M245,249.915l-.728.058q-1.942.155-3.889.156t-3.913-.156l-.728-.058a5.693,5.693,0,0,1-5.223-5.223l-.058-.728q-.156-1.947-.156-3.9t.156-3.9l.058-.728a5.694,5.694,0,0,1,5.223-5.223l.728-.058q1.948-.156,3.9-.156t3.9.156l.731.059a5.694,5.694,0,0,1,5.221,5.221l.058.728q.156,1.947.156,3.9t-.156,3.9l-.058.731A5.693,5.693,0,0,1,245,249.915Z" transform="translate(-117.52 -122.235)" fill="#eaeaea"/>
    <path id="路径_29" data-name="路径 29" d="M534.593,550.486a3.243,3.243,0,1,1,3.243-3.243A3.243,3.243,0,0,1,534.593,550.486Zm0-4.518a1.275,1.275,0,1,0,1.275,1.275A1.275,1.275,0,0,0,534.593,545.968Z" transform="translate(-407.8 -425.002)" fill="#333"/>
    <path id="路径_30" data-name="路径 30" d="M265.706,312h-2.349a.984.984,0,1,1,0-1.968h2.349a.984.984,0,1,1,0,1.968ZM258.568,312h-9.915a.984.984,0,1,1,0-1.968h9.915a.984.984,0,1,1,0,1.968Zm-5.27-6.51a3.243,3.243,0,1,1,3.243-3.243A3.243,3.243,0,0,1,253.3,305.486Zm0-4.518a1.275,1.275,0,1,0,1.275,1.275A1.275,1.275,0,0,0,253.3,300.968Z" transform="translate(-134.268 -188.766)" fill="#333"/>
    <path id="路径_31" data-name="路径 31" d="M251,363.808h-2.349a.984.984,0,0,1,0-1.968H251a.984.984,0,0,1,0,1.968Zm14.7.006h-9.915a.984.984,0,1,1,0-1.968h9.915a.984.984,0,1,1,0,1.968Z" transform="translate(-134.268 -249.358)" fill="#333"/>
    <path id="路径_32" data-name="路径 32" d="M122.914,132.217c-1.766,0-3.554-.072-5.315-.212a9.777,9.777,0,0,1-8.967-8.967c-.141-1.76-.212-3.548-.212-5.314s.072-3.554.212-5.315a9.776,9.776,0,0,1,8.967-8.967c1.76-.141,3.548-.212,5.315-.212s3.554.072,5.315.212a9.778,9.778,0,0,1,8.967,8.967c.141,1.761.212,3.549.212,5.315s-.072,3.554-.212,5.314a9.778,9.778,0,0,1-8.967,8.967c-1.755.14-3.538.211-5.3.212Zm5.158-2.173.078.981-.078-.981a7.809,7.809,0,0,0,7.162-7.162c.137-1.708.206-3.444.206-5.158s-.069-3.449-.206-5.158a7.809,7.809,0,0,0-7.162-7.162c-1.709-.136-3.444-.206-5.158-.206s-3.449.069-5.158.206a7.81,7.81,0,0,0-7.162,7.162c-.136,1.708-.206,3.444-.206,5.158s.069,3.449.206,5.158a7.81,7.81,0,0,0,7.162,7.162c1.714.137,3.454.206,5.173.206S126.368,130.18,128.072,130.044Z" transform="translate(0 0)" fill="#333"/>
  </g>
</svg>
