<svg xmlns="http://www.w3.org/2000/svg" width="14.462" height="14.462" viewBox="0 0 14.462 14.462">
  <path id="路径_161" data-name="路径 161" d="M103.308,14.462h-9.3a2.583,2.583,0,0,1-2.583-2.583v-9.3A2.583,2.583,0,0,1,94.011,0h9.3a2.583,2.583,0,0,1,2.583,2.583v9.3a2.583,2.583,0,0,1-2.583,2.583Zm1.033-2.841V8.554a3.086,3.086,0,0,0-3.966,4.359h2.675a1.291,1.291,0,0,0,1.291-1.291ZM103.05,1.55H94.269a1.291,1.291,0,0,0-1.291,1.291v8.781a1.291,1.291,0,0,0,1.291,1.291h4.406A4.628,4.628,0,0,1,104.341,6.9V2.841A1.291,1.291,0,0,0,103.05,1.55Zm-6.715,5.94A2.324,2.324,0,1,1,98.66,5.165,2.324,2.324,0,0,1,96.335,7.489Zm0-3.1a.775.775,0,1,0,.775.775A.775.775,0,0,0,96.335,4.39Z" transform="translate(-91.429)"/>
</svg>
