<svg xmlns="http://www.w3.org/2000/svg" width="17.13" height="17.13" viewBox="0 0 17.13 17.13">
  <g id="组_39" data-name="组 39" transform="translate(-85.333 -85.318)">
    <path id="路径_166" data-name="路径 166" d="M93.9,102.448a8.558,8.558,0,1,1,7.936-5.338.857.857,0,0,1-1.587-.646,6.847,6.847,0,1,0-3.3,3.559.857.857,0,0,1,.763,1.534,8.485,8.485,0,0,1-3.809.891" fill="#fff"/>
    <path id="路径_167" data-name="路径 167" d="M289.012,286.143A2.855,2.855,0,1,0,291.867,289a2.858,2.858,0,0,0-2.855-2.855m0,7.423A4.568,4.568,0,1,1,293.58,289a4.573,4.573,0,0,1-4.568,4.568" transform="translate(-195.114 -195.115)" fill="#fff"/>
    <path id="路径_168" data-name="路径 168" d="M656.453,294.434a2.263,2.263,0,0,1-.457-.046,2.29,2.29,0,0,1-1.774-2.352v-6.749a.856.856,0,1,1,1.713,0v6.749c0,.221.053.6.408.675.393.08.99-.245,1.38-1.149a.857.857,0,1,1,1.573.679,3.217,3.217,0,0,1-2.844,2.193" transform="translate(-557.469 -195.115)" fill="#fff"/>
  </g>
</svg>
