<svg xmlns="http://www.w3.org/2000/svg" width="16.912" height="16.912" viewBox="0 0 16.912 16.912">
  <path id="路径_161" data-name="路径 161" d="M87.961,85.585a4.639,4.639,0,0,0-1.914,1.649c-1.756,2.2-.186,6.6,3.859,10.607l.21.205c3.805,3.658,8.621,5.243,10.459,3.648l.06-.056-.029.024a4.941,4.941,0,0,0,1.269-1.546,2.718,2.718,0,0,0-.816-3.626C99.2,95,97.944,94.954,96.71,96.085l-.139.13-.357.353a2.357,2.357,0,0,1-.688-.335,18.806,18.806,0,0,1-4-3.968l-.077-.121a2.388,2.388,0,0,1-.243-.492l-.019-.068.359-.355.131-.138c1.139-1.224,1.088-2.465-.409-4.314-1.017-1.256-2.173-1.651-3.306-1.194Zm1.98,2.249.222.279c.744.965.751,1.285.325,1.769l-.165.176-.419.413c-.9.893-.5,2.028.83,3.591l.279.319.3.331.161.169.337.349.36.362.183.181.359.346.345.323q.17.155.333.3l.321.276c1.578,1.319,2.72,1.716,3.621.826l.417-.416.11-.1c.481-.44.779-.5,1.6.079l.249.184.282.22a1.074,1.074,0,0,1,.369,1.542,3.288,3.288,0,0,1-.533.726l-.144.145-.11.1-.106.092c-.286.283-1.385.31-2.8-.153a14.754,14.754,0,0,1-5.564-3.609c-3.51-3.481-4.785-7.044-3.729-8.369A3.413,3.413,0,0,1,88.6,87.147C88.984,86.993,89.366,87.124,89.942,87.835Z" transform="translate(-85.335 -85.402)"/>
</svg>
