<svg xmlns="http://www.w3.org/2000/svg" width="11.727" height="11.274" viewBox="0 0 11.727 11.274">
  <path id="路径_164" data-name="路径 164" d="M106.525,127.979H97.508a1.353,1.353,0,0,0-1.353,1.353v7.214a1.353,1.353,0,0,0,1.353,1.353h2.969l1.222,1.222a.454.454,0,0,0,.32.133.448.448,0,0,0,.32-.133l1.222-1.222h2.969a1.353,1.353,0,0,0,1.353-1.353v-7.214A1.362,1.362,0,0,0,106.525,127.979Zm-6.991,5.41a.676.676,0,1,1,.676-.676A.677.677,0,0,1,99.534,133.389Zm2.705,0a.676.676,0,1,1,.676-.676A.677.677,0,0,1,102.239,133.389Zm2.708,0a.676.676,0,1,1,.676-.676A.677.677,0,0,1,104.947,133.389Z" transform="translate(-96.155 -127.979)" fill="#383838"/>
</svg>
