<svg xmlns="http://www.w3.org/2000/svg" width="17.89" height="17.915" viewBox="0 0 17.89 17.915">
  <g id="组_35" data-name="组 35" transform="translate(-135.86 -135.5)">
    <path id="路径_63" data-name="路径 63" d="M261.726,264q-1.187.1-2.377.1t-2.392-.1a4,4,0,0,1-3.672-3.672q-.1-1.19-.1-2.385t.1-2.384a4,4,0,0,1,3.672-3.673q1.19-.1,2.385-.1c.515,0,2.937-.026,4.584-.045a1.55,1.55,0,0,1,1.568,1.55v4.646q0,1.193-.1,2.385A4,4,0,0,1,261.726,264Z" transform="translate(-114.537 -113.478)" fill="#eaeaea"/>
    <path id="路径_64" data-name="路径 64" d="M639.83,141.485a.655.655,0,0,1-.655-.655v-3.4a.625.625,0,0,0-.625-.624h-3.4a.655.655,0,1,1,0-1.309h3.4a1.936,1.936,0,0,1,1.934,1.934v3.4A.655.655,0,0,1,639.83,141.485Z" transform="translate(-486.769)" fill="#333"/>
    <path id="路径_65" data-name="路径 65" d="M523.1,183.484a.655.655,0,0,1-.463-1.117l6.383-6.387a.655.655,0,1,1,.926.926l-6.383,6.387A.653.653,0,0,1,523.1,183.484Z" transform="translate(-377.381 -39.328)" fill="#333"/>
    <path id="路径_66" data-name="路径 66" d="M144.8,154.5c-1.085,0-2.184-.044-3.265-.13a6.05,6.05,0,0,1-5.549-5.549c-.086-1.082-.13-2.18-.13-3.265s.044-2.184.13-3.265a6.05,6.05,0,0,1,5.549-5.549c1.082-.086,2.18-.13,3.265-.13a.655.655,0,0,1,0,1.309c-1.05,0-2.114.043-3.161.126a4.74,4.74,0,0,0-4.348,4.348c-.084,1.048-.126,2.111-.126,3.161s.042,2.114.126,3.161a4.74,4.74,0,0,0,4.348,4.348c1.048.084,2.111.126,3.161.126h.011c1.048,0,2.108-.043,3.151-.126a4.741,4.741,0,0,0,4.348-4.348c.084-1.048.126-2.111.126-3.161a.655.655,0,1,1,1.309,0c0,1.085-.044,2.184-.13,3.265a6.05,6.05,0,0,1-5.55,5.549c-1.078.086-2.174.13-3.255.13Z" transform="translate(0 -1.084)" fill="#333"/>
  </g>
</svg>
