<svg xmlns="http://www.w3.org/2000/svg" xmlns:xlink="http://www.w3.org/1999/xlink" width="16" height="12" viewBox="0 0 16 12" fill="none"><path id="Vector (轮廓)" fill-rule="evenodd" style="fill:#383838" transform="translate(0 0)  rotate(0 8 6)" opacity="1" d="M8 12C6.53 12 5.13 11.52 3.82 10.55C2.55 9.62 1.37 8.24 0.26 6.42L0 6L0.26 5.58C1.37 3.76 2.55 2.38 3.82 1.45C5.13 0.48 6.53 0 8 0C9.47 0 10.87 0.48 12.18 1.45C13.45 2.38 14.63 3.76 15.74 5.58L16 6L15.74 6.42C14.63 8.24 13.45 9.62 12.18 10.55C10.87 11.52 9.47 12 8 12ZM8 1.6C10.21 1.6 12.26 3.07 14.14 6C12.26 8.93 10.21 10.4 8 10.4C5.79 10.4 3.74 8.93 1.86 6C3.74 3.07 5.79 1.6 8 1.6ZM6.05 7.98C6.31 8.24 6.6 8.44 6.93 8.58C7.27 8.73 7.63 8.8 8 8.8C8.37 8.8 8.73 8.73 9.07 8.58C9.4 8.44 9.69 8.24 9.95 7.98C10.2 7.72 10.4 7.43 10.53 7.09C10.68 6.74 10.75 6.38 10.75 6C10.75 5.62 10.68 5.26 10.53 4.91C10.4 4.57 10.2 4.28 9.95 4.02C9.69 3.76 9.4 3.56 9.07 3.42C8.73 3.27 8.37 3.2 8 3.2C7.63 3.2 7.27 3.27 6.93 3.42C6.6 3.56 6.31 3.76 6.05 4.02C5.8 4.28 5.6 4.57 5.47 4.91C5.32 5.26 5.25 5.62 5.25 6C5.25 6.38 5.32 6.74 5.47 7.09C5.6 7.43 5.8 7.72 6.05 7.98ZM6.91 6.47C6.85 6.32 6.82 6.16 6.82 6C6.82 5.84 6.85 5.68 6.91 5.53C6.97 5.39 7.06 5.26 7.17 5.15C7.28 5.04 7.4 4.95 7.54 4.89C7.69 4.83 7.84 4.8 8 4.8C8.16 4.8 8.31 4.83 8.46 4.89C8.6 4.95 8.72 5.04 8.83 5.15C8.94 5.26 9.03 5.39 9.09 5.53C9.15 5.68 9.18 5.84 9.18 6C9.18 6.16 9.15 6.32 9.09 6.47C9.03 6.61 8.94 6.74 8.83 6.85C8.72 6.96 8.6 7.05 8.46 7.11C8.31 7.17 8.16 7.2 8 7.2C7.84 7.2 7.69 7.17 7.54 7.11C7.4 7.05 7.28 6.96 7.17 6.85C7.06 6.74 6.97 6.61 6.91 6.47Z" /></svg>