<svg xmlns="http://www.w3.org/2000/svg" xmlns:xlink="http://www.w3.org/1999/xlink" width="52.048" height="52.048" viewBox="0 0 52.048 52.048">
  <defs>
    <clipPath id="clip-path">
      <path id="路径_155" data-name="路径 155" d="M145.319,161.644a126.652,126.652,0,0,1-20.174,0,16.938,16.938,0,0,1-15.535-15.535,126.651,126.651,0,0,1,0-20.174A16.938,16.938,0,0,1,125.145,110.4a126.655,126.655,0,0,1,20.174,0,16.938,16.938,0,0,1,15.535,15.535,126.654,126.654,0,0,1,0,20.174A16.938,16.938,0,0,1,145.319,161.644Z" transform="translate(3821.792 964.002)" fill="#f1dfff"/>
    </clipPath>
  </defs>
  <g id="蒙版组_4" data-name="蒙版组 4" transform="translate(-3931 -1074)" clip-path="url(#clip-path)">
    <g id="组_31" data-name="组 31" transform="translate(3821.292 964.002)">
      <path id="路径_155-2" data-name="路径 155" d="M145.319,161.644a126.652,126.652,0,0,1-20.174,0,16.938,16.938,0,0,1-15.535-15.535,126.651,126.651,0,0,1,0-20.174A16.938,16.938,0,0,1,125.145,110.4a126.655,126.655,0,0,1,20.174,0,16.938,16.938,0,0,1,15.535,15.535,126.654,126.654,0,0,1,0,20.174A16.938,16.938,0,0,1,145.319,161.644Z" transform="translate(0.5)" fill="#f1dfff"/>
    </g>
    <path id="路径_159" data-name="路径 159" d="M87.1,107.977H64.855a.855.855,0,0,1,0-1.711H87.1a.855.855,0,1,1,0,1.711Zm-2.566,10.266H79.4a.855.855,0,1,1,0-1.711h5.133a.856.856,0,0,0,.855-.855V111.4a.855.855,0,0,1,1.711,0v4.277A2.57,2.57,0,0,1,84.531,118.242Zm-12.832,0H67.422a2.57,2.57,0,0,1-2.566-2.566V111.4a.855.855,0,1,1,1.711,0v4.277a.856.856,0,0,0,.855.855H71.7a.855.855,0,1,1,0,1.711ZM65.711,103.7a.856.856,0,0,1-.855-.855V98.566A2.57,2.57,0,0,1,67.422,96H71.7a.855.855,0,1,1,0,1.711H67.422a.857.857,0,0,0-.855.855v4.277A.856.856,0,0,1,65.711,103.7Zm20.531,0a.855.855,0,0,1-.855-.855V98.566a.856.856,0,0,0-.855-.855H79.4A.855.855,0,1,1,79.4,96h5.133A2.57,2.57,0,0,1,87.1,98.566v4.277A.855.855,0,0,1,86.242,103.7Z" transform="translate(3881 993)" fill="#be85ff"/>
  </g>
</svg>
