<svg xmlns="http://www.w3.org/2000/svg" xmlns:xlink="http://www.w3.org/1999/xlink" width="51.271" height="51.272" viewBox="0 0 51.271 51.272">
  <defs>
    <clipPath id="clip-path">
      <path id="路径_160" data-name="路径 160" d="M145.78,157.873a124.762,124.762,0,0,1-19.873,0,16.685,16.685,0,0,1-15.3-15.3,124.762,124.762,0,0,1,0-19.873,16.685,16.685,0,0,1,15.3-15.3,124.764,124.764,0,0,1,19.873,0,16.685,16.685,0,0,1,15.3,15.3,124.766,124.766,0,0,1,0,19.873A16.685,16.685,0,0,1,145.78,157.873Z" transform="translate(3695.657 974.148)" fill="#fff6de"/>
    </clipPath>
  </defs>
  <g id="蒙版组_3" data-name="蒙版组 3" transform="translate(-3805.864 -1081.145)" clip-path="url(#clip-path)">
    <g id="组_32" data-name="组 32" transform="translate(3695.657 974.148)">
      <path id="路径_151" data-name="路径 151" d="M145.78,157.873a124.762,124.762,0,0,1-19.873,0,16.685,16.685,0,0,1-15.3-15.3,124.762,124.762,0,0,1,0-19.873,16.685,16.685,0,0,1,15.3-15.3,124.764,124.764,0,0,1,19.873,0,16.685,16.685,0,0,1,15.3,15.3,124.766,124.766,0,0,1,0,19.873A16.685,16.685,0,0,1,145.78,157.873Z" fill="#fff6de"/>
      <path id="路径_152" data-name="路径 152" d="M264.151,252.145l-1.676-1.673a4.844,4.844,0,0,0-4-1.386l-5.237.62a4.846,4.846,0,0,0-2.86,1.39l-9.573,9.591a4.433,4.433,0,0,0,0,6.266l6.854,6.855a4.433,4.433,0,0,0,6.266,0l9.594-9.573a4.846,4.846,0,0,0,1.389-2.86l.62-5.237A4.844,4.844,0,0,0,264.151,252.145Z" transform="translate(-116.699 -129.446)" fill="#ffb636"/>
      <path id="路径_153" data-name="路径 153" d="M564.33,328.73m-3.27,0a3.27,3.27,0,1,0,3.27-3.27A3.27,3.27,0,0,0,561.06,328.73Z" transform="translate(-422.477 -202.107)" fill="#fff6de"/>
      <path id="路径_154" data-name="路径 154" d="M337.957,529.348a1.364,1.364,0,0,1-.968-.4l-5.583-5.585a1.369,1.369,0,0,1,1.936-1.934l5.583,5.583a1.369,1.369,0,0,1-.968,2.337Z" transform="translate(-203.736 -388.116)" fill="#fff6de"/>
    </g>
  </g>
</svg>
