<svg id="组_34" data-name="组 34" xmlns="http://www.w3.org/2000/svg" width="21.176" height="21.176" viewBox="0 0 21.176 21.176">
  <path id="路径_47" data-name="路径 47" d="M20.347,6.467a10.6,10.6,0,0,0-19.514,0,10.583,10.583,0,0,0,9.756,14.709A10.6,10.6,0,0,0,20.347,6.467ZM19.2,14.227a9.38,9.38,0,1,1,.734-3.638A9.34,9.34,0,0,1,19.2,14.227Z" transform="translate(0 0)"/>
  <path id="路径_48" data-name="路径 48" d="M234.62,259.309a.622.622,0,0,0-.62.62v2.73a.62.62,0,1,0,1.241,0v-2.73A.622.622,0,0,0,234.62,259.309Zm2.565-1.324a.622.622,0,0,0-.62.62v5.377a.62.62,0,1,0,1.241,0v-5.377A.622.622,0,0,0,237.185,257.986ZM239.75,256a.622.622,0,0,0-.62.62v9.348a.62.62,0,0,0,1.241,0V256.62A.622.622,0,0,0,239.75,256Zm5.129,3.309a.622.622,0,0,0-.62.62v2.73a.62.62,0,1,0,1.241,0v-2.73A.622.622,0,0,0,244.879,259.309Zm-2.565-1.324a.622.622,0,0,0-.62.62v5.377a.62.62,0,1,0,1.241,0v-5.377A.622.622,0,0,0,242.314,257.986Z" transform="translate(-229.16 -250.705)"/>
</svg>
